<svg width="1200" height="320" viewBox="0 0 1200 320" fill="none" xmlns="http://www.w3.org/2000/svg">
  <defs>
    <linearGradient id="bg" x1="50" y1="10" x2="1140" y2="310" gradientUnits="userSpaceOnUse">
      <stop stop-color="#0D1117"/>
      <stop offset="0.52" stop-color="#111827"/>
      <stop offset="1" stop-color="#17102F"/>
    </linearGradient>
    <linearGradient id="accent" x1="168" y1="92" x2="700" y2="205" gradientUnits="userSpaceOnUse">
      <stop stop-color="#7DD3FC"/>
      <stop offset="0.5" stop-color="#A78BFA"/>
      <stop offset="1" stop-color="#F59E0B"/>
    </linearGradient>
    <radialGradient id="glowA" cx="0" cy="0" r="1" gradientTransform="translate(1050 30) rotate(132) scale(410 360)" gradientUnits="userSpaceOnUse">
      <stop stop-color="#7C3AED" stop-opacity=".48"/>
      <stop offset="1" stop-color="#7C3AED" stop-opacity="0"/>
    </radialGradient>
    <radialGradient id="glowB" cx="0" cy="0" r="1" gradientTransform="translate(50 315) rotate(-36) scale(440 290)" gradientUnits="userSpaceOnUse">
      <stop stop-color="#0EA5E9" stop-opacity=".32"/>
      <stop offset="1" stop-color="#0EA5E9" stop-opacity="0"/>
    </radialGradient>
    <filter id="blur" x="-80%" y="-80%" width="260%" height="260%">
      <feGaussianBlur stdDeviation="24"/>
    </filter>
  </defs>

  <rect x="1" y="1" width="1198" height="318" rx="24" fill="url(#bg)" stroke="#30363D" stroke-width="2"/>
  <rect x="1" y="1" width="1198" height="318" rx="24" fill="url(#glowA)"/>
  <rect x="1" y="1" width="1198" height="318" rx="24" fill="url(#glowB)"/>

  <g opacity=".28">
    <path d="M0 64H1200M0 128H1200M0 192H1200M0 256H1200" stroke="#64748B" stroke-width=".6"/>
    <path d="M80 0V320M160 0V320M240 0V320M320 0V320M400 0V320M480 0V320M560 0V320M640 0V320M720 0V320M800 0V320M880 0V320M960 0V320M1040 0V320M1120 0V320" stroke="#64748B" stroke-width=".6"/>
  </g>

  <circle cx="1052" cy="92" r="74" fill="#7C3AED" fill-opacity=".15" filter="url(#blur)"/>
  <circle cx="1016" cy="128" r="58" stroke="#7DD3FC" stroke-opacity=".35"/>
  <circle cx="1068" cy="82" r="58" stroke="#A78BFA" stroke-opacity=".5"/>
  <circle cx="1106" cy="136" r="58" stroke="#F59E0B" stroke-opacity=".35"/>
  <circle cx="1068" cy="112" r="8" fill="#7DD3FC"/>
  <circle cx="1068" cy="112" r="18" stroke="#7DD3FC" stroke-opacity=".35"/>

  <rect x="64" y="50" width="214" height="34" rx="17" fill="#161B22" stroke="#30363D"/>
  <circle cx="84" cy="67" r="5" fill="#34D399"/>
  <text x="98" y="72" fill="#94A3B8" font-family="ui-monospace, SFMono-Regular, Menlo, monospace" font-size="14" letter-spacing="1.5">AVAILABLE TO BUILD</text>

  <text x="64" y="160" fill="#F8FAFC" font-family="Inter, ui-sans-serif, system-ui, sans-serif" font-size="68" font-weight="750" letter-spacing="-2">sline</text>
  <rect x="64" y="181" width="530" height="5" rx="2.5" fill="url(#accent)"/>
  <text x="64" y="226" fill="#CBD5E1" font-family="Inter, ui-sans-serif, system-ui, sans-serif" font-size="24" font-weight="500">AI agents · creative tools · automation</text>
  <text x="64" y="267" fill="#64748B" font-family="ui-monospace, SFMono-Regular, Menlo, monospace" font-size="17">&gt; turning intelligence into practical open-source software</text>

  <g transform="translate(866 242)">
    <rect width="266" height="38" rx="19" fill="#0D1117" stroke="#334155"/>
    <text x="22" y="25" fill="#7DD3FC" font-family="ui-monospace, SFMono-Regular, Menlo, monospace" font-size="14">BUILD  /  SHIP  /  ITERATE</text>
  </g>
</svg>
